<svg preserveAspectRatio="none" width="100%" height="100%" overflow="visible" style="display: block;" viewBox="0 0 11.2 12.8" fill="none" xmlns="http://www.w3.org/2000/svg">
<path id="Primary" d="M5.6 0C5.38 0 5.2 0.18 5.2 0.4V0.82C3.1775 1.02 1.6 2.725 1.6 4.8V5.0575C1.6 6.185 1.215 7.28 0.5125 8.16L0.26 8.475C0.0925 8.685 0 8.9475 0 9.215C0 9.87 0.53 10.4 1.185 10.4H10.015C10.67 10.4 11.2 9.87 11.2 9.215C11.2 8.945 11.1075 8.685 10.94 8.475L10.6875 8.16C9.9825 7.28 9.6 6.185 9.6 5.0575V4.8C9.6 2.725 8.0225 1.02 6 0.82V0.4C6 0.18 5.82 0 5.6 0ZM5.6 1.6C7.3675 1.6 8.8 3.0325 8.8 4.8V5.0575C8.8 6.3675 9.245 7.6375 10.065 8.66L10.315 8.975C10.37 9.0425 10.4 9.1275 10.4 9.215C10.4 9.4275 10.2275 9.6 10.015 9.6H1.185C0.9725 9.6 0.8 9.4275 0.8 9.215C0.8 9.1275 0.83 9.0425 0.885 8.975L1.1375 8.66C1.955 7.6375 2.4 6.3675 2.4 5.0575V4.8C2.4 3.0325 3.8325 1.6 5.6 1.6ZM3.9025 11.6C4.15 12.3 4.8175 12.8 5.6 12.8C6.3825 12.8 7.05 12.3 7.2975 11.6H6.4C6.2175 11.8425 5.9275 12 5.6 12C5.2725 12 4.9825 11.8425 4.8 11.6H3.9025Z" fill="var(--fill-0, black)"/>
</svg>
