<svg preserveAspectRatio="none" width="100%" height="100%" overflow="visible" style="display: block;" viewBox="0 0 12.7987 12.7987" fill="none" xmlns="http://www.w3.org/2000/svg">
<path id="Primary" d="M9.6 5.2C9.6 4.62218 9.48619 4.05003 9.26507 3.51619C9.04395 2.98236 8.71985 2.49731 8.31127 2.08873C7.90269 1.68015 7.41764 1.35605 6.88381 1.13493C6.34997 0.913809 5.77782 0.8 5.2 0.8C4.62218 0.8 4.05003 0.913809 3.51619 1.13493C2.98236 1.35605 2.49731 1.68015 2.08873 2.08873C1.68015 2.49731 1.35605 2.98236 1.13493 3.51619C0.913809 4.05003 0.8 4.62218 0.8 5.2C0.8 5.77782 0.913809 6.34997 1.13493 6.88381C1.35605 7.41764 1.68015 7.90269 2.08873 8.31127C2.49731 8.71985 2.98236 9.04395 3.51619 9.26507C4.05003 9.48619 4.62218 9.6 5.2 9.6C5.77782 9.6 6.34997 9.48619 6.88381 9.26507C7.41764 9.04395 7.90269 8.71985 8.31127 8.31127C8.71985 7.90269 9.04395 7.41764 9.26507 6.88381C9.48619 6.34997 9.6 5.77782 9.6 5.2ZM8.5825 9.15C7.675 9.93 6.4925 10.4 5.2 10.4C2.3275 10.4 0 8.0725 0 5.2C0 2.3275 2.3275 0 5.2 0C8.0725 0 10.4 2.3275 10.4 5.2C10.4 6.4925 9.93 7.675 9.15 8.5825L12.6825 12.1175C12.8375 12.2725 12.8375 12.5275 12.6825 12.6825C12.5275 12.8375 12.2725 12.8375 12.1175 12.6825L8.5825 9.15Z" fill="var(--fill-0, #767070)"/>
</svg>
