<svg preserveAspectRatio="none" width="100%" height="100%" overflow="visible" style="display: block;" viewBox="0 0 11.2 12.8" fill="none" xmlns="http://www.w3.org/2000/svg">
<path id="Primary" d="M3.2 3.2C3.2 2.88483 3.26208 2.57274 3.38269 2.28156C3.5033 1.99038 3.68008 1.7258 3.90294 1.50294C4.1258 1.28008 4.39038 1.1033 4.68156 0.982689C4.97274 0.862078 5.28483 0.8 5.6 0.8C5.91517 0.8 6.22726 0.862078 6.51844 0.982689C6.80962 1.1033 7.0742 1.28008 7.29706 1.50294C7.51992 1.7258 7.6967 1.99038 7.81731 2.28156C7.93792 2.57274 8 2.88483 8 3.2C8 3.51517 7.93792 3.82726 7.81731 4.11844C7.6967 4.40962 7.51992 4.6742 7.29706 4.89706C7.0742 5.11992 6.80962 5.2967 6.51844 5.41731C6.22726 5.53792 5.91517 5.6 5.6 5.6C5.28483 5.6 4.97274 5.53792 4.68156 5.41731C4.39038 5.2967 4.1258 5.11992 3.90294 4.89706C3.68008 4.6742 3.5033 4.40962 3.38269 4.11844C3.26208 3.82726 3.2 3.51517 3.2 3.2ZM8.8 3.2C8.8 2.35131 8.46286 1.53737 7.86274 0.937258C7.26263 0.337142 6.44869 0 5.6 0C4.75131 0 3.93737 0.337142 3.33726 0.937258C2.73714 1.53737 2.4 2.35131 2.4 3.2C2.4 4.04869 2.73714 4.86263 3.33726 5.46274C3.93737 6.06286 4.75131 6.4 5.6 6.4C6.44869 6.4 7.26263 6.06286 7.86274 5.46274C8.46286 4.86263 8.8 4.04869 8.8 3.2ZM0.8 12C0.8 10.0125 2.4125 8.4 4.4 8.4H6.8C8.7875 8.4 10.4 10.0125 10.4 12V12.4C10.4 12.62 10.58 12.8 10.8 12.8C11.02 12.8 11.2 12.62 11.2 12.4V12C11.2 9.57 9.23 7.6 6.8 7.6H4.4C1.97 7.6 0 9.57 0 12V12.4C0 12.62 0.18 12.8 0.4 12.8C0.62 12.8 0.8 12.62 0.8 12.4V12Z" fill="var(--fill-0, black)"/>
</svg>
