<svg preserveAspectRatio="none" width="100%" height="100%" overflow="visible" style="display: block;" viewBox="0 0 11.9764 5.98821" fill="none" xmlns="http://www.w3.org/2000/svg">
<g id="Group">
<path id="Vector" d="M0 0C0 1.58787 0.630919 3.11137 1.75388 4.23433C2.87684 5.35729 4.39988 5.98821 5.98821 5.98821C7.57609 5.98821 9.09958 5.35729 10.2225 4.23433C11.3455 3.11137 11.9764 1.58787 11.9764 0H8.60028C8.26041 0 7.99393 0.281847 7.89092 0.605726C7.79506 0.907098 7.62811 1.18424 7.40042 1.41221C7.02564 1.78653 6.51796 1.99668 5.98821 1.99668C5.45846 1.99668 4.95032 1.78653 4.576 1.41221C4.3483 1.18423 4.18118 0.90708 4.08519 0.605697C3.98205 0.281858 3.71555 0 3.37568 0H0Z" fill="var(--fill-0, #A001A8)"/>
</g>
</svg>
