<svg preserveAspectRatio="none" width="100%" height="100%" overflow="visible" style="display: block;" viewBox="0 0 19.9558 9.9779" fill="none" xmlns="http://www.w3.org/2000/svg">
<g id="Group">
<path id="Vector" d="M19.1984 9.9779C19.6167 9.9779 19.9588 9.63829 19.9271 9.2212C19.747 6.85155 18.7254 4.61435 17.0334 2.92237C15.1623 1.05123 12.6244 0 9.9779 0C7.33144 0 4.79351 1.05123 2.92237 2.92237C1.23038 4.61435 0.208822 6.85155 0.0287088 9.2212C-0.00299399 9.63829 0.339098 9.9779 0.757396 9.9779H3.99107C3.99107 8.39003 4.62199 6.86745 5.74449 5.74449C6.86745 4.62199 8.39003 3.99107 9.9779 3.99107C11.5658 3.99107 13.0883 4.62199 14.2113 5.74449C15.3338 6.86745 15.9647 8.39003 15.9647 9.9779H19.1984Z" fill="var(--fill-0, #A001A8)"/>
</g>
</svg>
